# xmcd
#
# Track frame offsets:
#	150
#	15587
#	32975
#	51207
#	65580
#	81237
#	95707
#	113515
#	127835
#	144395
#
# Disc length: 2101 seconds
#
# Revision: 4
# Processed by: cddbd v1.5.2PL0 Copyright (c) Steve Scherf et al.
# Submitted via: EZCDAudioConverter 5.5.0.1
#
DISCID=8108330a
DTITLE=Tanya Tucker - Fire To Fire
DYEAR=1995
DGENRE=Country
TTITLE0=Come In Out Of The World
TTITLE1=I'll Take The Memories
TTITLE2=I Bet She Knows
TTITLE3=Find Out What's Happenin'
TTITLE4=Fire To Fire (Duet With Willie Nelson)
TTITLE5=Between The Two Of Them
TTITLE6=Nobody Dies From A Broken Heart
TTITLE7=I'll Take Today
TTITLE8=The Love You Gave To Me
TTITLE9=Love Will
EXTD=
EXTT0=
EXTT1=
EXTT2=
EXTT3=
EXTT4=
EXTT5=
EXTT6=
EXTT7=
EXTT8=
EXTT9=
PLAYORDER=
